<?xml version="1.0" encoding="UTF-8" standalone="no"?>
<!-- Created with Inkscape (http://www.inkscape.org/) -->

<svg
   width="210mm"
   height="297mm"
   viewBox="0 0 210 297"
   version="1.1"
   id="svg1"
   inkscape:version="1.4 (86a8ad7, 2024-10-11)"
   sodipodi:docname="BlogBackgroundRight.svg"
   xmlns:inkscape="http://www.inkscape.org/namespaces/inkscape"
   xmlns:sodipodi="http://sodipodi.sourceforge.net/DTD/sodipodi-0.dtd"
   xmlns="http://www.w3.org/2000/svg"
   xmlns:svg="http://www.w3.org/2000/svg">
  <sodipodi:namedview
     id="namedview1"
     pagecolor="#ffffff"
     bordercolor="#000000"
     borderopacity="0.25"
     inkscape:showpageshadow="2"
     inkscape:pageopacity="0.0"
     inkscape:pagecheckerboard="0"
     inkscape:deskcolor="#d1d1d1"
     inkscape:document-units="mm"
     inkscape:zoom="0.68862935"
     inkscape:cx="397.16576"
     inkscape:cy="561.25984"
     inkscape:window-width="1920"
     inkscape:window-height="991"
     inkscape:window-x="-9"
     inkscape:window-y="-9"
     inkscape:window-maximized="1"
     inkscape:current-layer="layer1" />
  <defs
     id="defs1" />
  <g
     inkscape:label="Layer 1"
     inkscape:groupmode="layer"
     id="layer1">
    <path
       id="path2"
       style="fill:#44aa00;stroke-width:0.156642"
       d="m 156.06456,102.99323 58.23204,22.29225 c 0,0 -5.93122,2.7055 -14.19968,3.87414 l -0.58587,-4.10176 -2.4971,4.43952 c -2.11568,0.17781 -4.3422,0.23627 -6.62884,0.11718 l 0.70979,-6.14882 -3.43511,5.92242 c -1.66071,-0.19175 -3.34216,-0.49068 -5.02602,-0.90956 l 1.40948,-6.15035 -4.39425,5.27291 c -1.88816,-0.64444 -3.76361,-1.47429 -5.60485,-2.49557 l 2.03757,-3.68721 -3.90718,2.56777 c -1.82091,-1.16874 -3.59419,-2.56011 -5.298,-4.1905 l 2.83608,-3.38159 -4.14276,2.07124 c -3.63339,-3.84079 -6.89407,-8.89142 -9.5053,-15.49207 z" />
    <path
       id="path3"
       style="fill:#44aa00;stroke-width:0.156642"
       d="m 179.40976,101.03091 c 0.98356,5e-4 1.9202,0.0213 2.84984,0.045 l -0.49103,4.41966 1.29046,-4.40344 c 3.37487,0.11084 6.39774,0.37092 9.11431,0.75047 l -0.85113,6.38261 2.34841,-6.16508 c 2.4593,0.40083 4.64835,0.90486 6.58937,1.49239 l -0.97626,6.26481 3.12856,-5.54186 c 2.70607,0.99994 4.87019,2.17122 6.57347,3.44095 l -2.19575,6.65029 4.26636,-4.85104 c 6.32225,6.43426 3.46786,14.17741 3.46786,14.17741 l -57.09486,-21.15477 c 8.50167,-1.05205 15.76985,-1.51049 21.98039,-1.50738 z" />
    <path
       id="path2-98"
       style="fill:#44aa00;stroke-width:0.156642"
       d="m 154.76534,23.672044 58.23204,22.292144 c 0,0 -5.93122,2.7055 -14.19968,3.87414 l -0.58587,-4.10176 -2.4971,4.43952 c -2.11568,0.17781 -4.3422,0.23627 -6.62884,0.11718 l 0.70979,-6.14882 -3.43511,5.92242 c -1.66071,-0.19175 -3.34216,-0.49068 -5.02602,-0.90956 l 1.40948,-6.15035 -4.39425,5.27291 c -1.88816,-0.64444 -3.76361,-1.47429 -5.60485,-2.49557 l 2.03757,-3.68721 -3.90718,2.56777 c -1.82091,-1.16874 -3.59419,-2.56011 -5.298,-4.19049 l 2.83608,-3.381566 -4.14276,2.07123 c -3.63339,-3.84077 -6.89407,-8.89137 -9.5053,-15.491988 z" />
    <path
       id="path3-6"
       style="fill:#44aa00;stroke-width:0.156642"
       d="m 178.11054,21.709732 c 0.98356,4.97e-4 1.9202,0.02125 2.84984,0.045 l -0.49103,4.419637 1.29046,-4.403422 c 3.37487,0.110841 6.39774,0.370921 9.11431,0.750472 l -0.85113,6.382572 2.34841,-6.165047 c 2.4593,0.400831 4.64835,0.904859 6.58937,1.492388 l -0.97626,6.26478 3.12856,-5.541841 c 2.70607,0.999939 4.87019,2.171209 6.57347,3.440939 l -2.19575,6.650252 4.26636,-4.85101 c 6.32225,6.43422 3.46786,14.177336 3.46786,14.177336 L 156.13015,23.217125 C 164.63182,22.165083 171.9,21.706642 178.11054,21.70975 Z" />
    <path
       id="path2-1"
       style="fill:#44aa00;stroke-width:0.156642"
       d="m 159.34411,248.91408 58.23204,-22.29215 c 0,0 -5.93122,-2.7055 -14.19968,-3.87414 l -0.58587,4.10176 -2.4971,-4.43952 c -2.11568,-0.17781 -4.3422,-0.23627 -6.62884,-0.11718 l 0.70979,6.14882 -3.43511,-5.92242 c -1.66071,0.19175 -3.34216,0.49068 -5.02602,0.90956 l 1.40948,6.15035 -4.39425,-5.27291 c -1.88816,0.64444 -3.76361,1.47429 -5.60485,2.49557 l 2.03757,3.68721 -3.90718,-2.56777 c -1.82091,1.16874 -3.59419,2.56011 -5.298,4.19049 l 2.83608,3.38157 -4.14276,-2.07123 c -3.63339,3.84077 -6.89407,8.89137 -9.5053,15.49199 z" />
    <path
       id="path3-8"
       style="fill:#44aa00;stroke-width:0.156642"
       d="m 182.68931,250.87639 c 0.98356,-5e-4 1.9202,-0.0213 2.84984,-0.045 l -0.49103,-4.41964 1.29046,4.40342 c 3.37487,-0.11084 6.39774,-0.37092 9.11431,-0.75047 l -0.85113,-6.38257 2.34841,6.16505 c 2.4593,-0.40083 4.64835,-0.90486 6.58937,-1.49239 l -0.97626,-6.26478 3.12856,5.54184 c 2.70607,-0.99994 4.87019,-2.17121 6.57347,-3.44094 l -2.19575,-6.65025 4.26636,4.85101 c 6.32225,-6.43422 3.46786,-14.17734 3.46786,-14.17734 L 160.70892,249.369 c 8.50167,1.05204 15.76985,1.51048 21.98039,1.50737 z" />
    <path
       id="path2-1-7"
       style="fill:#44aa00;stroke-width:0.156642"
       d="m 160.97285,78.710975 58.23204,-22.29215 c 0,0 -5.93122,-2.7055 -14.19968,-3.87414 l -0.58587,4.10176 -2.4971,-4.43952 c -2.11568,-0.17781 -4.3422,-0.23627 -6.62884,-0.11718 l 0.70979,6.14882 -3.43511,-5.92242 c -1.66071,0.19175 -3.34216,0.49068 -5.02602,0.90956 l 1.40948,6.15035 -4.39425,-5.27291 c -1.88816,0.64444 -3.76361,1.47429 -5.60485,2.49557 l 2.03757,3.68721 -3.90718,-2.56777 c -1.82091,1.16874 -3.59419,2.56011 -5.298,4.19049 l 2.83608,3.38157 -4.14276,-2.07123 c -3.63339,3.84077 -6.89407,8.89137 -9.5053,15.49199 z" />
    <path
       id="path3-8-7"
       style="fill:#44aa00;stroke-width:0.156642"
       d="m 184.31805,80.673285 c 0.98356,-5e-4 1.9202,-0.0213 2.84984,-0.045 l -0.49103,-4.41964 1.29046,4.40342 c 3.37487,-0.11084 6.39774,-0.37092 9.11431,-0.75047 l -0.85113,-6.38257 2.34841,6.16505 c 2.4593,-0.40083 4.64835,-0.90486 6.58937,-1.49239 l -0.97626,-6.26478 3.12856,5.54184 c 2.70607,-0.99994 4.87019,-2.17121 6.57347,-3.44094 l -2.19575,-6.65025 4.26636,4.85101 c 6.32225,-6.43422 3.46786,-14.17734 3.46786,-14.17734 l -57.09486,21.15467 c 8.50167,1.05204 15.76985,1.51048 21.98039,1.50737 z" />
  </g>
</svg>
