<?xml version="1.0" encoding="UTF-8" standalone="no"?>
<!-- Created with Inkscape (http://www.inkscape.org/) -->

<svg
   width="72.485634mm"
   height="72.508385mm"
   viewBox="0 0 72.485634 72.508385"
   version="1.1"
   id="svg1"
   sodipodi:docname="Gear.svg"
   inkscape:version="1.4 (86a8ad7, 2024-10-11)"
   xmlns:inkscape="http://www.inkscape.org/namespaces/inkscape"
   xmlns:sodipodi="http://sodipodi.sourceforge.net/DTD/sodipodi-0.dtd"
   xmlns="http://www.w3.org/2000/svg"
   xmlns:svg="http://www.w3.org/2000/svg">
  <sodipodi:namedview
     id="namedview1"
     pagecolor="#ffffff"
     bordercolor="#000000"
     borderopacity="0.25"
     inkscape:showpageshadow="2"
     inkscape:pageopacity="0.0"
     inkscape:pagecheckerboard="0"
     inkscape:deskcolor="#d1d1d1"
     inkscape:document-units="mm"
     inkscape:zoom="2.02"
     inkscape:cx="158.41584"
     inkscape:cy="167.07921"
     inkscape:window-width="1920"
     inkscape:window-height="991"
     inkscape:window-x="-9"
     inkscape:window-y="-9"
     inkscape:window-maximized="1"
     inkscape:current-layer="layer1" />
  <defs
     id="defs1" />
  <g
     inkscape:label="Layer 1"
     inkscape:groupmode="layer"
     id="layer1"
     transform="translate(-69.096086,-107.02189)">
    <path
       id="path5"
       style="opacity:0.25;fill:#1a1a1a;stroke-width:0.264583"
       d="M 106.47262 107.02241 C 104.93198 106.97161 104.40685 111.33503 102.86974 111.45108 C 101.33263 111.56714 100.15815 107.33202 98.642603 107.61359 C 97.127053 107.89516 97.552058 112.26975 96.075835 112.71353 C 94.599613 113.15731 92.542237 109.27364 91.122648 109.87443 C 89.70306 110.47521 91.058188 114.65564 89.711882 115.40639 C 88.365571 116.15713 85.521401 112.80709 84.264152 113.699 C 83.006904 114.59091 85.229496 118.3825 84.07605 119.40511 C 82.922604 120.42772 79.424663 117.76667 78.388542 118.90799 C 77.352421 120.04932 80.338021 123.27442 79.431372 124.52108 C 78.524724 125.76774 74.536249 123.92112 73.769703 125.2585 C 73.003158 126.59588 76.612346 129.10416 75.99489 130.51658 C 75.377433 131.92899 71.085286 130.98303 70.624158 132.45393 C 70.16303 133.92482 74.227225 135.59836 73.927832 137.11049 C 73.628439 138.62262 69.233335 138.62119 69.099187 140.15682 C 68.96504 141.69246 73.293649 142.45317 73.326319 143.99431 C 73.358989 145.53544 69.06648 146.47893 69.265585 148.0075 C 69.464689 149.53607 73.855565 149.34853 74.218771 150.84661 C 74.581976 152.3447 70.59307 154.18905 71.116118 155.63908 C 71.639165 157.08912 75.88709 155.962 76.563847 157.34698 C 77.240604 158.73196 73.74092 161.39025 74.563453 162.69394 C 75.385986 163.99763 79.292295 161.98395 80.250961 163.19107 C 81.209626 164.39819 78.363318 167.74704 79.446875 168.84344 C 80.530433 169.93983 83.912283 167.13321 85.108029 168.10602 C 86.303776 169.07883 84.24406 172.96086 85.537976 173.79869 C 86.831893 174.63651 89.531791 171.16884 90.908708 171.86186 C 92.285624 172.55487 91.108762 176.78915 92.552535 177.32923 C 93.996308 177.86932 95.886961 173.90208 97.380664 174.2829 C 98.874367 174.66372 98.63525 179.05207 100.16137 179.26916 C 101.68749 179.48624 102.68147 175.20516 104.22211 175.25597 C 105.76276 175.30677 106.47236 179.64411 108.00947 179.52806 C 109.54658 179.412 109.59709 175.01716 111.11264 174.73559 C 112.62819 174.45402 114.2537 178.53729 115.72993 178.09352 C 117.20615 177.64974 116.31074 173.34734 117.73033 172.74656 C 119.14992 172.14577 121.61522 175.78399 122.96153 175.03324 C 124.30784 174.28249 122.50837 170.27278 123.76562 169.38087 C 125.02287 168.48896 128.21287 171.51246 129.36631 170.48985 C 130.51976 169.46724 127.90024 165.93799 128.93636 164.79666 C 129.97248 163.65534 133.7379 165.9224 134.64454 164.67574 C 135.55119 163.42908 132.23416 160.54574 133.00071 159.20837 C 133.76725 157.87099 137.93175 159.27517 138.54921 157.86271 C 139.16666 156.45029 135.30737 154.34736 135.7685 152.87646 C 136.22962 151.40557 140.59902 151.88228 140.89842 150.37015 C 141.19781 148.85803 136.9764 147.6337 137.11054 146.09806 C 137.24469 144.56243 141.61425 144.0885 141.58158 142.54737 C 141.54888 141.00623 137.16339 140.71801 136.96429 139.18944 C 136.76519 137.66087 140.93039 136.25886 140.56718 134.76077 C 140.20397 133.26269 135.85902 133.92361 135.33597 132.47357 C 134.81293 131.02354 138.5795 128.75912 137.90274 127.37414 C 137.22599 125.98916 133.12509 127.56885 132.30256 126.26516 C 131.48003 124.96146 134.67147 121.9398 133.71281 120.73268 C 132.75414 119.52556 129.08819 121.94999 128.00463 120.8536 C 126.92107 119.75721 129.38899 116.1203 128.19325 115.14749 C 126.9975 114.17468 123.93868 117.33045 122.64476 116.49263 C 121.35084 115.6548 122.97833 111.57256 121.60141 110.87954 C 120.2245 110.18652 117.91578 113.92644 116.47201 113.38636 C 115.02824 112.84627 115.74053 108.5091 114.24682 108.12828 C 112.75312 107.74746 111.30241 111.89606 109.77629 111.67897 C 108.25016 111.46188 108.01327 107.07323 106.47262 107.02241 z M 103.22992 116.4084 L 103.22992 137.32753 A 6.326993 6.326993 0 0 0 100.39392 139.35118 L 80.47472 132.87923 A 27.033514 27.033514 0 0 1 103.22992 116.4084 z M 107.44775 116.4084 A 27.033514 27.033514 0 0 1 130.27271 133.04666 L 110.41449 139.49949 A 6.326993 6.326993 0 0 0 107.44775 137.31151 L 107.44775 116.4084 z M 79.156971 136.8857 L 99.01674 143.33854 A 6.326993 6.326993 0 0 0 99.98774 146.64479 L 87.657227 163.61637 A 27.033514 27.033514 0 0 1 78.305343 143.27601 A 27.033514 27.033514 0 0 1 79.156971 136.8857 z M 131.56307 137.06243 A 27.033514 27.033514 0 0 1 132.37233 143.27601 A 27.033514 27.033514 0 0 1 122.65871 163.92488 L 110.39796 147.0489 A 6.326993 6.326993 0 0 0 111.64749 143.53336 L 131.56307 137.06243 z M 103.30588 149.25342 A 6.326993 6.326993 0 0 0 105.33884 149.60327 A 6.326993 6.326993 0 0 0 106.89016 149.39708 L 119.22481 166.37434 A 27.033514 27.033514 0 0 1 105.33884 170.3095 A 27.033514 27.033514 0 0 1 91.047201 166.12629 L 103.30588 149.25342 z " />
  </g>
</svg>
