<?xml version="1.0" encoding="UTF-8" standalone="no"?>
<!-- Created with Inkscape (http://www.inkscape.org/) -->

<svg
   width="210mm"
   height="297mm"
   viewBox="0 0 210 297"
   version="1.1"
   id="svg1"
   inkscape:version="1.4 (86a8ad7, 2024-10-11)"
   sodipodi:docname="BlogBackgroundLeft.svg"
   xmlns:inkscape="http://www.inkscape.org/namespaces/inkscape"
   xmlns:sodipodi="http://sodipodi.sourceforge.net/DTD/sodipodi-0.dtd"
   xmlns="http://www.w3.org/2000/svg"
   xmlns:svg="http://www.w3.org/2000/svg">
  <sodipodi:namedview
     id="namedview1"
     pagecolor="#ffffff"
     bordercolor="#000000"
     borderopacity="0.25"
     inkscape:showpageshadow="2"
     inkscape:pageopacity="0.0"
     inkscape:pagecheckerboard="0"
     inkscape:deskcolor="#d1d1d1"
     inkscape:document-units="mm"
     inkscape:zoom="0.68862935"
     inkscape:cx="397.16576"
     inkscape:cy="561.25984"
     inkscape:window-width="1920"
     inkscape:window-height="991"
     inkscape:window-x="-9"
     inkscape:window-y="-9"
     inkscape:window-maximized="1"
     inkscape:current-layer="layer1" />
  <defs
     id="defs1" />
  <g
     inkscape:label="Layer 1"
     inkscape:groupmode="layer"
     id="layer1">
    <path
       id="path2-9"
       style="fill:#44aa00;stroke-width:0.161635"
       d="M 56.005578,80.086338 -4.0824773,103.089 c 0,0 6.1202706,2.79172 14.6522573,3.99762 l 0.604552,-4.2325 2.576686,4.58102 c 2.183116,0.18348 4.480596,0.2438 6.840119,0.12091 l -0.732407,-6.3448 3.544598,6.11119 c 1.713635,-0.19786 3.448686,-0.50632 5.186211,-0.93855 l -1.454402,-6.34638 4.534301,5.44097 c 1.948341,-0.66498 3.883572,-1.52128 5.783493,-2.57511 l -2.102515,-3.804734 4.031717,2.649614 c 1.878949,-1.20599 3.708744,-2.641714 5.466857,-4.324054 l -2.926477,-3.48935 4.274801,2.13724 c 3.749198,-3.96318 7.113803,-9.17475 9.808264,-15.985748 z" />
    <path
       id="path3-5"
       style="fill:#44aa00;stroke-width:0.161635"
       d="m 31.91631,78.061481 c -1.014918,5.14e-4 -1.981404,0.02193 -2.94068,0.04643 l 0.506689,4.560502 -1.331592,-4.543769 c -3.482441,0.114373 -6.601656,0.382743 -9.404815,0.774393 l 0.878258,6.585988 -2.423259,-6.36153 c -2.537689,0.413606 -4.796509,0.933698 -6.799395,1.539952 l 1.007376,6.464439 -3.2282763,-5.718459 c -2.7923123,1.03181 -5.0254127,2.240408 -6.7829787,3.5506 l 2.2657281,6.862209 -4.40233815,-5.00562 C -7.2627196,93.455916 -4.3173531,101.44584 -4.3173531,101.44584 L 54.597269,79.61692 C 45.824626,78.531345 38.324794,78.058293 31.91631,78.0615 Z" />
    <path
       id="path2-9-1"
       style="fill:#44aa00;stroke-width:0.161635"
       d="m 49.963851,236.58242 -60.088056,23.00267 c 0,0 6.1202701,2.79172 14.6522571,3.99762 l 0.604552,-4.2325 2.576686,4.58102 c 2.183116,0.18348 4.4805959,0.2438 6.8401189,0.12091 l -0.732407,-6.3448 3.544598,6.11119 c 1.713635,-0.19786 3.448686,-0.50632 5.186211,-0.93855 l -1.454402,-6.34638 4.534301,5.44097 c 1.948341,-0.66498 3.883572,-1.52128 5.783493,-2.57511 l -2.102515,-3.80474 4.031717,2.64962 c 1.878949,-1.20599 3.708744,-2.64172 5.466857,-4.32406 l -2.926477,-3.48935 4.274801,2.13724 c 3.749198,-3.96318 7.113805,-9.17475 9.808265,-15.98575 z" />
    <path
       id="path3-5-38"
       style="fill:#44aa00;stroke-width:0.161635"
       d="m 25.874582,234.55757 c -1.014918,5.1e-4 -1.981404,0.0219 -2.94068,0.0464 l 0.506689,4.5605 -1.331592,-4.54377 c -3.482441,0.11438 -6.601656,0.38275 -9.404815,0.7744 l 0.878258,6.58598 -2.423259,-6.36153 c -2.5376889,0.41361 -4.7965089,0.9337 -6.7993949,1.53995 l 1.007376,6.46444 -3.228276,-5.71846 c -2.79231301,1.03181 -5.025413,2.24041 -6.782979,3.5506 l 2.265728,6.86221 -4.402338,-5.00562 c -6.5237471,6.6393 -3.5783801,14.62923 -3.5783801,14.62923 l 58.914622,-21.82892 c -8.772643,-1.08558 -16.272475,-1.55863 -22.680959,-1.55542 z" />
    <path
       id="path2-9-2"
       style="fill:#44aa00;stroke-width:0.161635"
       d="M 56.888737,149.06962 -3.1993181,126.06696 c 0,0 6.12027,-2.79172 14.6522571,-3.99762 l 0.604552,4.2325 2.576686,-4.58102 c 2.183116,-0.18348 4.480596,-0.2438 6.840119,-0.12091 l -0.732407,6.3448 3.544598,-6.11119 c 1.713635,0.19786 3.448686,0.50632 5.186211,0.93855 l -1.454402,6.34638 4.534301,-5.44097 c 1.948341,0.66498 3.883572,1.52128 5.783493,2.57511 l -2.102515,3.80473 4.031717,-2.64961 c 1.878949,1.20599 3.708744,2.64171 5.466857,4.32405 l -2.926477,3.48935 4.274801,-2.13724 c 3.749198,3.96318 7.113803,9.17475 9.808264,15.98575 z" />
    <path
       id="path3-5-3"
       style="fill:#44aa00;stroke-width:0.161635"
       d="m 32.799469,151.09448 c -1.014918,-5.2e-4 -1.981404,-0.0219 -2.94068,-0.0464 l 0.506689,-4.56051 -1.331592,4.54377 c -3.482441,-0.11437 -6.601656,-0.38274 -9.404815,-0.77439 l 0.878258,-6.58599 -2.423259,6.36153 c -2.537689,-0.4136 -4.796509,-0.9337 -6.799395,-1.53995 l 1.007376,-6.46444 -3.2282761,5.71846 c -2.792313,-1.03181 -5.025413,-2.24041 -6.782979,-3.5506 l 2.265728,-6.86221 -4.40233801,5.00562 C -6.3795611,135.70007 -3.4341941,127.71015 -3.4341941,127.71015 l 58.9146221,21.82889 c -8.772643,1.08557 -16.272475,1.55862 -22.680959,1.55542 z" />
    <path
       id="path2-9-2-8"
       style="fill:#44aa00;stroke-width:0.161635"
       d="M 54.190242,28.915769 -5.8978142,5.9131094 c 0,0 6.12026997,-2.79172 14.652257,-3.99762 l 0.604552,4.2325 2.5766862,-4.58102 c 2.183116,-0.18348 4.480596,-0.2438 6.840119,-0.12091 l -0.732407,6.3448 3.544598,-6.11119 c 1.713635,0.19786 3.448686,0.50632 5.186211,0.93855 l -1.454402,6.34638 4.534301,-5.44097 c 1.948341,0.66498 3.883572,1.52128 5.783493,2.57511 l -2.102515,3.80473 4.031717,-2.64961 c 1.878949,1.20599 3.708744,2.64171 5.466857,4.3240496 l -2.926477,3.48935 4.274801,-2.13724 c 3.749198,3.96318 7.113805,9.17475 9.808265,15.98575 z" />
    <path
       id="path3-5-3-6"
       style="fill:#44aa00;stroke-width:0.161635"
       d="m 30.100973,30.940629 c -1.014918,-5.2e-4 -1.981404,-0.0219 -2.94068,-0.0464 l 0.506689,-4.56051 -1.331592,4.54377 c -3.482441,-0.11437 -6.601656,-0.38274 -9.404815,-0.77439 l 0.878258,-6.58599 -2.423259,6.36153 c -2.537689,-0.4136 -4.796509,-0.9337 -6.7993952,-1.53995 l 1.007376,-6.46444 -3.228276,5.71846 c -2.792313,-1.03181 -5.025413,-2.24041 -6.78297903,-3.5506 l 2.26572803,-6.86221 -4.402338,5.00562 c -6.523747,-6.6393 -3.57838,-14.6292196 -3.57838,-14.6292196 L 52.781932,29.385189 c -8.772643,1.08557 -16.272475,1.55862 -22.680959,1.55542 z" />
  </g>
</svg>
